<?xml version="1.0" encoding="UTF-8"?>
<svg id="Layer_2" data-name="Layer 2" xmlns="http://www.w3.org/2000/svg" viewBox="0 0 492.19 296.79">
  <defs>
    <style>
      .cls-1 {
        fill: #c62039;
      }

      .cls-2 {
        fill: #11100f;
      }
    </style>
  </defs>
  <g id="Layer_1-2" data-name="Layer 1">
    <g>
      <g>
        <path class="cls-1" d="m46.55,223.55c.85.68,1.68,1.35,2.51,2.01-.87-.54-1.94-1.26-3.13-2.09-1.2-.83-2.44-1.89-3.8-2.97,1.6,1.37,3.21,2.79,4.98,4.08.87.66,1.75,1.33,2.64,2,.89.68,1.78,1.36,2.73,1.97,1.89,1.26,3.8,2.54,5.72,3.83,2.01,1.18,4.04,2.38,6.08,3.58,2.01,1.25,4.2,2.26,6.33,3.37,2.15,1.08,4.27,2.23,6.52,3.16l6.67,2.92c2.25.92,4.56,1.71,6.82,2.57,4.5,1.78,9.17,3.04,13.68,4.43,2.24.73,4.55,1.22,6.79,1.77,2.25.54,4.47,1.07,6.66,1.59,1.08.28,2.19.47,3.28.66,1.09.2,2.17.39,3.24.58,2.14.38,4.23.75,6.28,1.11,4.09.72,8.04,1.14,11.71,1.56,10.55,1.71,20.11,2.09,21.19,1.52,1.05-.57-6.77-1.71-17.34-3.29-2.32-.41-5.02-.89-6.68-1.28-1.86-.41-3.75-.92-5.71-1.38-1.93-.52-3.91-1.06-5.93-1.61-2.02-.54-4.08-1.09-6.19-1.65-.53-.14-1.05-.28-1.59-.42-.52-.17-1.05-.33-1.57-.5-1.05-.33-2.12-.67-3.19-1-2.15-.66-4.33-1.34-6.56-2.03-2.2-.73-4.39-1.58-6.64-2.37-1.12-.4-2.25-.81-3.39-1.21-.57-.2-1.14-.41-1.71-.61-.56-.23-1.12-.47-1.68-.7-2.25-.93-4.53-1.87-6.83-2.82,1.76.77,3.56,1.56,5.36,2.35.9.4,1.8.79,2.7,1.19.9.4,1.83.7,2.73,1.06l-2.05-.72c-.68-.25-1.34-.55-2.01-.82-1.34-.55-2.68-1.1-4.05-1.66-1.37-.55-2.76-1.1-4.17-1.67-1.39-.62-2.8-1.26-4.26-1.91.57.37,1.3.84,1.88,1.22-2.22-1.1-4.54-2.22-6.94-3.35-2.33-1.23-4.73-2.5-7.16-3.78-4.8-2.64-9.63-5.43-14.14-8.32-9.06-5.74-16.84-11.8-21.94-15.92-5.09-4.16-6.95-5.34-6.2-3.47.78,1.83,4.34,6.72,11.66,13.35,1.08.98,2.21,1.91,3.32,2.87,1.12.94,2.2,1.94,3.38,2.82Z"/>
        <path class="cls-1" d="m77.45,245.54c-11.07-5.44-21.14-11.61-30.37-18.7l-1.75-1.5.06,1.24.22.08c1.18.71,2.44,1.48,3.77,2.31,1.32.85,2.82,1.62,4.31,2.51,1.53.85,3.05,1.84,4.73,2.71,1.67.88,3.39,1.79,5.15,2.73,1.73.98,3.59,1.83,5.46,2.72,1.87.89,3.76,1.79,5.66,2.7,1.95.82,3.9,1.64,5.86,2.47,1.95.83,3.88,1.68,5.87,2.36l5.64,2c2.7.95,4.6,1.32,5.23,1.3.74,0-.1-.52-2.04-1.34-1.9-.91-4.87-2.2-8.48-3.61-.69-.28-1.39-.54-2.08-.82l-2.03-.92-4.05-1.84c-1.22-.59-2.51-1.15-3.79-1.81-1.27-.67-2.57-1.36-3.91-2.07-1.34-.7-2.7-1.41-4.08-2.13-1.34-.78-2.71-1.58-4.08-2.38-1.37-.81-2.78-1.58-4.16-2.42-1.35-.87-2.71-1.74-4.07-2.61-2.77-1.67-5.31-3.59-7.91-5.35-10.21-7.23-18.33-14.91-22.76-18.72-1.97-1.74-.88.32-.83,1.05-.51-.09.45,1.45,2.48,3.97,2.1,2.47,5.3,5.94,9.42,9.45,1.03.88,2.03,1.76,3.03,2.57,1.03.78,2.04,1.54,3,2.27.97.72,1.88,1.42,2.79,2.04.92.59,1.79,1.15,2.58,1.66,1.61,1.01,2.95,1.84,3.98,2.36,1.05.5,1.74.76,1.99.73,1.52,1.02,3.1,2.09,4.62,3.1-1.25-.71-2.53-1.43-3.8-2.15,1.46.57,4.23,2.25,7.63,3.94,1.69.87,3.46,1.84,5.26,2.75,1.84.85,3.66,1.69,5.34,2.46,3.28,1.7,6.75,3.03,10.14,4.5l-5.1-3.91c-.9-.34-1.77-.73-2.63-1.14l-2.6-1.2c.36.25,1.07.72,1,.69-9.96-4.45-19.07-9.29-28.67-16.23-4.05-2.87-8.02-5.87-11.73-9.12-3.13-2.53-3.16-1.97-.11,1.25,1.5,1.62,3.18,3.08,4.77,4.63-.72-.7-1.44-1.4-2.16-2.1,1.44,1.26,2.83,2.6,4.35,3.82,1.51,1.23,3.03,2.46,4.56,3.7,3.18,2.32,6.31,4.76,9.68,6.89l2.49,1.65c.82.56,1.65,1.1,2.52,1.59,1.71,1.02,3.42,2.03,5.12,3.04,1.68,1.05,3.45,1.92,5.18,2.85,1.73.92,3.46,1.84,5.16,2.75,2.21,1.07,4.97,2.21,6.21,2.59,1.07.31.17-.28-2.12-1.37Z"/>
        <g>
          <path class="cls-1" d="m31.43,216.25c-1.73-1.77-3.4-3.48-5.86-6-.65-.55-.97-.84-1.13-1,.83,1,2.03,2.3,3.19,3.64,2.37,2.56,3.82,3.65,3.8,3.36Z"/>
          <path class="cls-1" d="m24.44,209.25c-.76-.93-1.27-1.56-1.27-1.56.27.37.54.74.8,1.09.27.27.27.28.27.28,0,0,0,0,.2.18Z"/>
          <path class="cls-1" d="m350.1,36.07c-11.48-3.5-23.28-6.06-35.23-7.68-11.92-1.63-24.1-2.24-36.41-2.25-24.62.02-49.52,2.29-74.01,6.28-1.65.25-3.01.57-3.07.68-.07.1,1.22-.06,2.74-.3,24.48-4.01,49.31-6.28,73.85-6.32,12.27.01,24.42.57,36.3,2.16,11.92,1.58,23.69,4.11,35.16,7.57,1.54.48,2.83.81,3.07.79.1-.07-.95-.48-2.39-.94Z"/>
          <path class="cls-1" d="m71.07,156.04c-.64-.98-.7-.9-.16.19.23.47.57,1.11.93,1.75.38.63.81,1.26,1.14,1.73.57.8.65.7.15-.2-.29-.53-.7-1.18-1.07-1.81-.36-.64-.72-1.25-.99-1.66Z"/>
          <path class="cls-1" d="m59.71,149.19c-.34-.88-.69-1.76-1.03-2.63-.29-.89-.59-1.77-.87-2.65-.6-1.73-1.08-3.57-1.48-5.3-.79-3.49-1.31-6.86-1.64-10.06-.1-1.2-.17-2.54-.13-3.56-.13.45-.35-1-.33-3.75,0-3.38.23-6.79.7-10.19.2-1.7.54-3.39.84-5.09.37-1.68.73-3.38,1.2-5.05,1.84-6.69,4.55-13.22,8.1-19.3,7.13-12.17,17.29-22.49,28.73-30.56,5.72-4.05,11.71-7.74,17.93-10.88,6.18-3.26,12.57-6.02,19.04-8.52,6.47-2.49,13.03-4.66,19.59-6.63,6.6-1.96,13.04-3.71,19.68-5.41.32-.2,1-.5,2.16-.9,1.8-.6,4.53-1.36,7.79-2.18,3.26-.78,7.03-1.58,10.89-2.29l5.84-.97c23.58-3.92,47.3-6.3,71.1-6.8,4.86-.33,10.52-.52,16.7-.48,10.33-.11,20.78.24,31.31,1.31,10.5,1.11,21.02,2.86,31.51,5.34-1.29-.45-2.05-.79-2-.91.24-.11,1.59.1,3.58.53,1,.21,2.15.48,3.41.79,1.26.31,2.63.65,4.02,1.11,2.82.88,5.65,1.68,8.44,2.64-8.03-2.7-16.15-5.18-24.39-7.04-1.19-.28-2.28-.54-3.28-.8-2.27-.49-4.57-.88-6.86-1.32-1.15-.21-2.3-.43-3.45-.64-1.16-.17-2.32-.34-3.48-.51-2.33-.33-4.65-.7-7-.99-2.35-.24-4.71-.49-7.08-.74-10.36-.96-20.58-1.24-30.68-1.16-10.1.09-20.08.56-29.95,1.39-19.75,1.59-39.09,4.39-58.09,8.23-9.49,1.96-18.92,4.2-28.2,6.74-9.15,2.51-18.47,5.27-27.58,8.62-9.12,3.35-18.1,7.26-26.7,12.03-8.6,4.74-16.89,10.26-24.35,16.93-.95.91-2.51,2.24-3.42,2.97-.61.5-.61.29.46-.72,4.53-4.44,9.37-8.31,14.29-11.93,1.25-.86,2.51-1.72,3.75-2.57.63-.42,1.24-.87,1.88-1.27l1.91-1.18c1.28-.79,2.55-1.58,3.83-2.36,1.3-.73,2.6-1.45,3.89-2.18,10.39-5.8,21.19-10.36,32.27-14.28,5.54-1.96,11.17-3.74,16.79-5.42,2.78-.85,5.67-1.66,8.59-2.48,2.91-.85,5.87-1.59,8.85-2.36,11.95-3.03,24.48-5.63,37.9-7.77,15.96-2.58,32.01-4.3,48.19-5.31,8.1-.43,16.22-.76,24.43-.69,2.05,0,4.1,0,6.16.08,2.06.06,4.12.09,6.18.18,4.15.22,8.29.42,12.46.85,8.34.65,16.63,1.96,24.91,3.42,8.24,1.68,16.5,3.51,24.61,6.03,4.09,1.13,8.09,2.6,12.14,3.93,2.01.73,4,1.51,6,2.26l3,1.14,2.96,1.25c1.97.85,3.95,1.69,5.93,2.54,1.95.92,3.9,1.84,5.85,2.76,1.97.89,3.87,1.93,5.8,2.92,1.91,1.02,3.87,1.96,5.74,3.08,1.96,1.16,3.92,2.31,5.87,3.46,1.91,1.23,3.82,2.45,5.73,3.67,1.92,1.19,3.75,2.54,5.61,3.83l2.77,1.95c.92.65,1.81,1.36,2.71,2.04,1.79,1.39,3.61,2.7,5.35,4.15,1.74,1.45,3.47,2.89,5.2,4.33,3.37,3.01,6.74,6.01,9.91,9.26,12.75,12.81,23.96,27.64,31.47,45.2,3.74,8.75,6.52,18.19,7.77,28.12,1.26,9.91.96,20.35-1.37,30.49-2.27,9.91-5.94,19.14-10.66,27.79-2.36,4.32-4.94,8.52-7.79,12.51-1.38,2.04-2.92,3.94-4.39,5.91l-2.33,2.84-1.17,1.42-1.22,1.37c-1.11,1.22-2.18,2.5-3.33,3.67l-3.43,3.54c-2.36,2.26-4.69,4.55-7.15,6.65-2.4,2.19-4.94,4.15-7.43,6.19l-3.83,2.88-1.92,1.43-1.95,1.36c-10.4,7.26-21.29,13.4-32.39,18.59-2.79,1.25-5.58,2.49-8.37,3.73-2.81,1.14-5.62,2.29-8.43,3.43-2.83,1.05-5.66,2.09-8.48,3.14-2.85.93-5.69,1.87-8.53,2.8-5.67,1.96-11.42,3.42-17.13,5.05l-2.14.6-2.15.52-4.31,1.03c-2.87.67-5.74,1.4-8.61,2.02l-8.63,1.75-4.32.86-4.32.74-8.65,1.47-8.66,1.24-4.33.61c-1.44.19-2.89.34-4.33.52l-8.67,1-8.68.81-4.34.39-4.34.31c-11.58.88-23.18,1.37-34.81,1.57-11.6.22-23.37.05-34.78-.24-8.65-.14-17.33-.52-25.46-1.21-8.13-.67-15.7-1.67-22.27-2.79-13.16-2.23-22.23-5.06-24.3-6.52-2.39-1.8,5.73-.76,20.27.56-2.87-.42-5.7-.88-8.55-1.37-2.25-.43-4.49-.87-6.73-1.35l-6.7-1.57c-1.58-.38-3.13-.75-4.65-1.11-.76-.18-1.51-.37-2.25-.55-.74-.19-1.46-.43-2.18-.64-2.86-.86-5.57-1.7-8.09-2.5-1.26-.41-2.47-.8-3.63-1.18-1.14-.44-2.24-.87-3.29-1.28-2.08-.82-3.95-1.59-5.56-2.29-2.99-1.19-5.89-2.63-8.8-4.03-1.43-.74-2.97-1.53-4.59-2.36-1.63-.79-3.27-1.81-4.99-2.74-1.71-.95-3.47-1.92-5.24-2.91-1.77-.97-3.49-2.12-5.22-3.16-1.71-1.07-3.41-2.13-5.06-3.17-1.59-1.12-3.15-2.22-4.63-3.26-1.46-1.06-2.87-2.02-4.11-3.04-1.24-1.01-2.36-1.96-3.34-2.83l2.28.73-1.96-1.46c-3.32-2.29-5.88-4.52-7.84-6.23-1.97-1.69-3.2-3.09-3.74-3.9l1.05-.11c.91.18,2.26.74,4.13,1.54.93.41,1.97.91,3.13,1.5,1.16.58,2.42,1.28,3.86,1.95-.01-.38.79-.23,2.33.41-1.03-.88-1.9-1.66-2.57-2.32-.66-.67-1.1-1.24-1.3-1.62-.4-.77.18-.86,2.14-.03-1.24-1-1.7-1.5-1.46-1.48.26,0,1.16.58,2.81,1.49,1.13.65,2.47,1.46,3.83,2.3-.02-.02-.03-.02-.03-.02-1.36-1.09-1.77-1.42-3.62-2.85-1.32-.85-2.27-1.65-2.96-2.13-.68-.5-1.04-.77-1.04-.77-1.67-1.24-2.96-2.12-3.96-2.93-1-.8-1.78-1.43-2.53-2.04-.75-.61-1.48-1.19-2.37-1.91-.87-.73-1.86-1.64-3.21-2.83-2.3-2.07-3.95-3.95-5.14-5.19-1.19-1.25-1.76-2-1.76-2-.95-1.43-1.66-2.51-2.18-3.31-.5-.81-.78-1.35-.94-1.69-.3-.68-.02-.58.53-.4.3.26.63.54.99.84-3.46-4.04-3.62-4.38-4.51-5.49-.45-.6-.8-1.12-1.04-1.49-.24-.37-.38-.59-.38-.59q.1-.37-.38-1.14c-.09-.3.04-.31.04-.31,2.09,2.08,2.08,2.07,2.21,2.07.52.47,1.19,1.14,1.19,1.14,1.13,1.28,1.96,2.14,2.55,2.74.58.6.92.95,1.12,1.16,2.23,2.95,3.45,4.39,4.03,5.12.62.71.62.72.62.72l1.37.91,1.02,1.45-.49-.92c1.3,1.37,1.97,2.04,2.32,2.35l.34.33c-.78-.75-1.35-1.33-1.75-1.78-.41-.44-.69-.74-.87-.94l-.37-.39c.8.77,1.51,1.44,2.13,2.04.65.57,1.21,1.06,1.7,1.49.99.87,1.7,1.49,2.29,2.01,1.16,1.05,1.92,1.55,3.32,2.66,1.47,1.15,2.8,2.25,3.9,2.99,1.09.74,1.83,1.25,1.99,1.35-.2-.26-.17-.34-.17-.34,1.95,1.4,3.38,2.5,4.63,3.33,1.26.82,2.26,1.48,3.25,2.13.99.65,1.98,1.3,3.21,2.11,1.27.75,2.79,1.65,4.83,2.84.72.5,1.29.9,1.82,1.29.81.4,2.45,1.17,4.11,2.03,1.48.77,2.94,1.53,4.41,2.29.34.15.66.3.97.44,0-.01,0-.03,0-.03,1.53.7,2.65,1.08,3.89,1.59.79.31.81.32.81.32,0,0,.03.02.04.02,1.34.54,2.99,1.19,5.58,2.23,2.64.93,6.27,2.16,11.52,3.92,2.79.96,5.38,1.86,7.84,2.71-.78-.31-1.53-.6-2.25-.89-1.44-.58,0-.42-.8-.71-4.94-1.64-9.78-3.79-14.76-5.78-2.46-1.07-4.88-2.26-7.34-3.38-1.22-.59-2.48-1.1-3.68-1.75-1.2-.63-2.41-1.27-3.61-1.9-9.66-5.05-19.03-10.96-27.52-17.71-1.53-1.19-3.03-2.34-4.1-3.34-1.07-1.01-1.8-1.76-1.93-2.04-.11-.25.39.02,1.3.68.45.33,1,.76,1.64,1.26.66.47,1.39,1.02,2.18,1.62,8.82,6.44,18.81,12.43,29.62,17.64,1.35.66,2.7,1.32,4.06,1.98,1.39.6,2.79,1.2,4.19,1.8,2.81,1.19,5.58,2.48,8.51,3.49,1.44.54,2.89,1.09,4.34,1.63,1.46.52,2.88,1.15,4.38,1.59,2.97.96,5.94,1.92,8.91,2.88,1.47.52,3.01.87,4.52,1.3l4.54,1.24,4.54,1.25,4.6,1.03c3.07.69,6.13,1.38,9.17,2.07,1.54.3,3.07.6,4.6.89,1.54.27,3.07.55,4.6.82,12.26,2.1,24.42,3.47,36.18,4.38,6.2.39,12.45.66,18.81.87,6.39.22,12.69.42,19,.49-.61-.05-1.21-.11-1.81-.16,3.27.12,6.54.15,9.79.21.35,0,.71,0,1.06,0-2.48-.17-4.95-.33-7.41-.49-1.7-.06-3.41-.13-5.14-.19-3.66-.06-7.27-.16-10.89-.28-3.61-.14-7.19-.28-10.75-.42-7.06-.32-13.92-.77-20.71-1.4-13.56-1.28-26.82-3.23-40.2-6.29-3.58-.86-7.03-1.69-10.41-2.51-3.31-1-6.55-1.97-9.76-2.94l-2.4-.73c-.79-.26-1.57-.56-2.35-.84-1.56-.56-3.13-1.13-4.7-1.69-1.57-.57-3.15-1.11-4.72-1.71-1.55-.65-3.11-1.3-4.69-1.95-3.28-1.29-5.49-2.33-5.02-2.38.46-.05,3.58.98,6.77,2.23,1.34.49,2.66,1.02,4.02,1.48,1.37.43,2.75.87,4.13,1.31,1.38.44,2.77.88,4.16,1.33,1.39.45,2.78.91,4.21,1.26,2.85.76,5.71,1.52,8.59,2.29l2.16.57,2.19.47,4.39.95,4.4.96,2.2.48,2.22.41c2.96.56,5.93,1.06,8.9,1.53,5.94.94,11.9,1.7,17.82,2.33,11.86,1.26,23.55,1.9,34.92,2.44,5.65.27,11.14.52,16.42.77,2.62.11,5.19.22,7.7.3,2.51.08,4.96.17,7.35.25,8.71-.14,17.1-.27,24.07-.38.13,0,.26,0,.39-.01-1.83-.06-3.54-.11-5.38-.17,3.25-.12,5.75-.1,8.18-.13,2.42-.04,4.78-.08,7.75-.21-.7-.14-1.53-.31-2.23-.45,16.01-.95,32.59-2.79,48.66-5.45,16.07-2.64,31.62-6.13,45.7-9.98,1.12-.34,2.17-.66,3.22-.98,5.93-2.08,11.81-4.35,17.81-6.95,1.5-.65,3.02-1.3,4.56-1.96,1.51-.7,3.05-1.41,4.6-2.13.78-.36,1.56-.72,2.35-1.08.78-.39,1.56-.78,2.35-1.17,1.57-.79,3.2-1.55,4.81-2.4-2.21,1.09-4.44,2.09-6.65,3.14-2.22,1.01-4.5,1.94-6.78,2.92,9.68-4.44,18.94-9.35,28.35-15.29,12.73-8.04,24.87-18.17,33.56-28.7,8.83-10.44,14.2-21.04,17.05-27.92.98-3.27,1.74-6.53,2.13-9.73.12-1.64.33-3.27.42-4.92-.01-1.66.07-3.31.01-4.97-.25-6.65-1.59-13.36-3.81-19.91-4.44-13.13-12.43-25.41-22.07-36.29-4.8-5.48-10.2-10.51-15.84-15.26l-2.13-1.77-1.06-.89-1.11-.84-4.42-3.36c-3.05-2.12-6.03-4.32-9.2-6.26-1.58-.98-3.1-2.05-4.73-2.95l-4.82-2.81c-1.62-.92-3.29-1.76-4.92-2.64l-2.47-1.31-2.52-1.22-5.04-2.42-5.14-2.23c-1.7-.77-3.44-1.44-5.19-2.11-1.75-.66-3.47-1.38-5.23-2-2.92-1-5.49-2.04-5.96-2.39-.24-.27,1.74.24,4.67,1.24,20.31,7.01,39.77,17.18,56.74,30.47,8.44,6.68,16.23,14.15,23.02,22.34,6.83,8.16,12.43,17.18,16.53,26.65-6.55-16-17.71-30.6-31.11-42.95-13.46-12.38-29.18-22.71-46.22-30.75-4.38-1.98-8.81-3.91-13.35-5.62-1.12-.42-2.22-.9-3.35-1.29-1.12-.4-2.25-.8-3.37-1.2l-3.35-1.22c-1.11-.41-2.26-.74-3.38-1.12-11.51-3.63-23.18-6.3-34.93-8.06l-4.41-.65c-1.47-.22-2.95-.33-4.42-.5-2.95-.32-5.89-.66-8.86-.82l-4.45-.31-4.47-.19c-2.98-.16-5.98-.17-8.98-.23-12-.13-24.12.36-36.33,1.34-12.21.99-24.53,2.48-36.97,4.52-10.62,1.73-20.84,3.78-30.77,6.12-9.85,2.36-19.79,5.01-29.2,7.97-9.44,2.98-18.59,6.45-27.37,10.71-2.2,1.06-4.32,2.24-6.5,3.36-2.12,1.19-4.23,2.43-6.32,3.69-1.02.66-2.04,1.33-3.06,2l-1.54,1-1.48,1.08c-.99.72-1.98,1.43-2.97,2.16-.94.77-1.89,1.53-2.85,2.31-5.29,4.38-9.97,9.17-13.82,14.37-3.8,5.22-6.88,10.76-8.97,16.6-2.1,5.82-3.33,11.9-3.61,18.03-.15,3.06-.08,6.13.21,9.16.28,3.01.82,6.05,1.53,8.71,3.16,11.3,10.24,22.06,19.48,31.48,9.26,9.46,20.48,17.8,32.71,25.21,6.53,3.91,12.7,7.46,13.29,8.28.63.82-4.59-1.3-11.28-5.14-13.07-7.46-25.39-16.1-35.62-26.3-2.53-2.56-4.97-5.19-7.19-7.94-2.2-2.76-4.3-5.57-6.11-8.51-1.79-2.94-3.46-5.93-4.76-9.04-.37-.76-.63-1.56-.94-2.33-.3-.78-.62-1.56-.85-2.36l-.76-2.37c-.21-.73-.4-1.52-.59-2.31-1.44-6.44-1.8-13.44-1.09-20.19.36-3.39.99-6.74,1.86-10.04.89-3.29,2.09-6.49,3.47-9.63,5.63-12.53,15.54-23.23,27.45-31.69,5.96-4.25,12.45-7.94,19.19-11.26,6.77-3.29,13.86-6.1,21.14-8.61,7.29-2.5,14.75-4.64,22.43-6.68,1.94-.53,3.83-.99,5.73-1.48,1.91-.47,3.8-.99,5.72-1.42,3.84-.88,7.67-1.79,11.56-2.56,15.48-3.24,31.28-5.61,47.23-7.28,7.98-.81,16-1.46,24.05-1.83,8.05-.43,16.12-.56,24.2-.45,1.74.03,3.48.07,5.21.1,1.73.07,3.45.15,5.17.22,3.45.11,6.84.43,10.25.66,3.38.34,6.75.71,10.11,1.1l5.01.75c1.67.26,3.34.46,4.99.8-.16-.09-.31-.18-.3-.25.04-.25,1.34-.24,3.5-.03-7.53-1.52-15.19-2.45-22.89-3.28-7.72-.68-15.53-1.04-23.39-1.19-21.87.17-43.84,2.17-65.92,5.45-11.04,1.65-22.12,3.65-33.22,6.08-2.76.64-5.56,1.22-8.32,1.9-2.77.69-5.56,1.38-8.35,2.07-5.64,1.45-11.2,2.94-16.74,4.6-7.6,2.28-14.86,4.79-21.8,7.66-3.46,1.44-6.85,2.95-10.11,4.61l-2.47,1.21c-.82.41-1.6.87-2.4,1.3l-2.38,1.31-1.19.65-1.15.7c-12.38,7.28-23.14,16.51-30.71,28.03-2.29,3.71-4.25,7.59-5.8,11.63-1.55,4.03-2.67,8.22-3.41,12.47-.73,4.25-1.02,8.58-.93,12.9.08,4.31.62,8.64,1.54,12.73.24,1.03.48,1.97.82,3,.34,1.01.6,2.04.99,3.03.39,1,.74,2,1.15,2.99l1.31,2.95c1.87,3.89,4.12,7.64,6.68,11.24,5.12,7.2,11.38,13.79,18.33,19.76,1.12.94,2.27,1.95,2.61,2.36.35.41-.32-.03-1.47-.97-9.78-7.98-18.65-17.3-24.82-28.12-.78-1.34-1.46-2.73-2.17-4.11-.61-1.41-1.34-2.79-1.85-4.24l-.84-2.15-.71-2.19c-.52-1.48-.86-2.86-1.19-4.38-1.31-6.01-1.72-12.39-1.29-18.66-.62,3.94-.88,6.34-1.31,6.02-.43-.31-.86-3.48-.6-8.34-.71,5.85-.63,11.8.14,17.63.46,3.61,1.03,6.36.8,6.32-.24,0-1.12-2.77-1.57-6.25-.81-6.01-.84-12.15-.1-18.17.73-6.03,2.27-11.94,4.49-17.58,4.52-11.27,12.01-21.24,21.13-29.42,5.44-4.97,11.45-9.34,17.79-13.22l4.83-2.79c1.62-.92,3.3-1.73,4.95-2.6,3.3-1.74,6.71-3.27,10.15-4.75,13.78-5.9,28.31-10.08,43.06-13.81-4.15.72-7.25,1.2-8.78,1.2,0,0,0,0,0,0-4.56,1.22-9.07,2.49-13.53,3.86-10.2,3.28-20.24,7.12-29.8,11.92-9.55,4.81-18.67,10.52-26.75,17.45-8.01,6.96-15.05,15.11-19.93,24.47-2.46,4.66-4.42,9.57-5.81,14.65-1.37,5.08-2.16,10.31-2.42,15.58-.22,5.26.1,10.56,1.04,15.73.24,1.29.5,2.57.82,3.82.3,1.24.75,2.5,1.12,3.75.81,2.49,1.79,4.94,2.89,7.34,4.42,9.59,10.98,18.23,18.53,25.89,7.57,7.68,16.14,14.46,25.19,20.55,9.06,6.1,18.63,11.5,28.49,16.35,1.55.76,2.8,1.43,2.79,1.53-.01.1-1.25-.39-2.65-1.08-11.93-5.84-23.44-12.51-34.14-20.21-10.66-7.72-20.58-16.49-28.55-26.73.02.04.04.05.06.09.58.87.62,1.09-.13.22-.64-.77-1.91-2.37-2.43-3.27-.63-1.03-.47-.99.13-.23-6.95-9.81-12.05-20.95-13.15-32.8-1.25-11.84.37-24.02,4.97-35,4.51-11.03,11.86-20.79,20.71-28.87,4.39-4.08,9.23-7.69,14.25-11,4.99-3.37,10.33-6.2,15.68-8.95-2.49,1.27-5.01,2.5-7.46,3.85-2.42,1.4-4.89,2.71-7.22,4.26-4.77,2.91-9.23,6.28-13.49,9.84-8.46,7.2-15.72,15.82-20.76,25.65-5.03,9.81-7.8,20.76-7.96,31.8-.08,5.51.4,11.05,1.6,16.4,1.28,5.31,3.22,10.52,5.73,15.43,2.32,4.23,5.01,8.23,8.05,12.08.41.53.87,1.15,1.25,1.69.41.53.74,1,.88,1.24.18.33-.54-.35-1.4-1.42-.83-1.08-1.7-2.12-2.51-3.22,4.87,6.86,9.22,11.77,8.73,12.03-.34,0-1.88-1.23-3.96-3.41-1.08-1.06-2.2-2.43-3.48-3.9-1.2-1.53-2.53-3.2-3.76-5.06-3.38-4.9-6.33-10.13-8.54-15.67-.5-1.4-1.08-2.78-1.52-4.2-.42-1.43-.92-2.83-1.26-4.29-.72-2.89-1.2-5.84-1.52-8.8-.64-5.92-.54-11.92.23-17.82.82-5.9,2.3-11.7,4.47-17.25l1.48-3.57,1.66-3.49c1.16-2.33,2.36-4.62,3.74-6.83-5.18,7.72-8.87,16.45-10.88,25.54-1.98,9.1-2.29,18.56-.84,27.77.38,2.3.82,4.6,1.51,6.84.34,1.11.64,2.24,1.03,3.34l1.19,3.29c1.73,4.33,3.86,8.49,6.29,12.45,4.85,7.94,10.94,15.03,17.58,21.45,2.29,2.2,4.26,4.06,4.18,4.25-.04.17-2.12-1.37-4.43-3.59-3-2.79-5.91-5.68-8.62-8.78-2.72-3.08-5.33-6.29-7.67-9.71-4.73-6.79-8.59-14.32-10.99-22.39-1.25-4.06-1.95-8.23-2.37-12.41-.4-4.18-.47-8.4-.19-12.6.58-8.39,2.46-16.76,5.79-24.55.77-1.97,1.76-3.85,2.67-5.76,1.04-1.84,2-3.74,3.17-5.5,2.19-3.63,4.81-6.96,7.49-10.23,5.52-6.4,11.87-12.03,18.69-16.92,6.83-4.9,14.13-9.06,21.64-12.73,7.53-3.63,15.31-6.68,23.19-9.35,5.12-1.9,10.31-3.65,15.52-5.27,5.21-1.64,10.41-3.15,15.71-4.64,10.58-2.93,21.34-5.46,32.26-7.64-2.77.42-5.57.91-8.36,1.42-4.45.77-8.83,1.71-13.17,2.6-4.33.99-8.63,1.91-12.87,3.03-4.26,1.07-8.39,2.17-12.54,3.34-4.14,1.17-8.26,2.4-12.33,3.72-8.14,2.64-16.11,5.67-23.81,9.23-7.7,3.55-15.14,7.63-22.14,12.41-7,4.77-13.59,10.2-19.4,16.47-2.85,3.18-5.64,6.45-8.04,10.02-1.28,1.73-2.35,3.61-3.5,5.43-.55.93-1.04,1.89-1.56,2.84l-.77,1.43-.7,1.47c-1.92,3.88-3.45,7.97-4.67,12.16-1.22,4.19-2.1,8.49-2.61,12.86-.51,4.37-.64,8.79-.41,13.23.23,4.44.81,8.87,1.86,13.31.43,1.79.84,3.24.81,3.49,0,.2-.52-.91-.96-2.74-2.15-8.68-2.62-17.37-1.83-25.9.4-4.26,1.15-8.47,2.22-12.59,1.1-4.11,2.54-8.12,4.24-12.01,1.74-3.88,3.8-7.6,6.09-11.18,2.36-3.53,4.88-6.97,7.73-10.15,5.63-6.42,12.13-12.11,19.25-17.11,11.84-8.25,24.49-14.4,37.21-19.23,6.36-2.43,12.75-4.54,19.1-6.46,6.37-1.93,12.6-3.65,18.96-5.35-6.53,1.61-12.86,3.26-19.25,5.12-6.38,1.85-12.72,3.89-18.95,6.22-6.24,2.31-12.38,4.95-18.37,7.9-5.95,3.04-11.82,6.28-17.38,10.06-5.55,3.79-10.88,7.97-15.78,12.68-4.9,4.7-9.37,9.93-13.15,15.67-3.79,5.73-6.88,11.96-9.14,18.51-.62,1.62-1.03,3.31-1.54,4.96l-.62,2.52c-.21.84-.41,1.68-.56,2.54-.72,3.39-1.13,6.85-1.39,10.31-.15,2.42-.26,4.86-.33,6.41.05.13.1.62.14,1.37.2,3.47.59,7.07,1.28,10.74.34,1.84.76,3.69,1.27,5.56.25.95.57,1.85.86,2.76.31.91.57,1.84.93,2.74.56,1.36,1.14,3.14,1.36,3.89.25.73-.24-.04-.85-1.58Zm110.05,121.53c-.5-.08-.9-.14-1.28-.2,1.39.15,2.87.31,4.52.49l6.3,1.07s-4.8-.61-9.54-1.37Zm-78.2-12.8s.01,0,.04.02c-1.9-.98-3.27-1.69-3.27-1.69,1.32.69,2.36,1.22,3.23,1.67ZM441.21,89.64l3.08,3.73,2.87,3.86c.99,1.27,1.84,2.62,2.72,3.94.87,1.33,1.8,2.64,2.56,4.02,3.34,5.4,6,11.09,8.12,16.88,2.07,5.8,3.62,11.73,4.15,17.68.6,5.93.29,11.86-.69,17.55.8-5.59,1-11.33.34-17.07-.97-8.93-3.55-17.9-7.6-26.43-4.06-8.52-9.38-16.64-15.56-24.18ZM117.97,260.12c3.41.94,6.44,1.81,9.25,2.65,1.4.43,2.75.84,4.06,1.23,1.32.37,2.6.72,3.87,1.08,4.62.73,9.46,1.46,14.37,2.11,13.2,1.78,26.2,2.69,39.13,3.23-1.67-.31,1.43-.18,3.02-.17,1.64.02,3.27.04,4.89.07-13.87-.5-27.57-1.31-41.36-3.08-6.21-.79-12.66-1.78-18.99-2.97-1.58-.31-3.15-.62-4.71-.93-1.55-.36-3.09-.72-4.61-1.08-3.04-.73-6.03-1.44-8.91-2.12Zm-83.9-39.5c-.26-.27-.5-.51-.8-.81l2.13,1.32s-.58-.22-1.33-.51Zm-3.39-2.07c.43.44.9.84,1.39,1.29-.61-.34-1.06-.77-1.39-1.29Zm13.4,11.33c-.79-.68-1.27-1.1-1.92-1.61,1.91,1.6,1.92,1.61,1.92,1.61Zm4.56,16.55c2.4.75,4.87,1.34,7.27,1.99l-3.9-1.16c-1.31-.38-2.62-.78-3.89-1.25l.52.42Z"/>
        </g>
      </g>
      <g id="logotype">
        <path class="cls-2" d="m67.25,132.19c-1.37-4.89-3.43-9.27-6.17-13.15-2.74-3.87-6.14-6.98-10.21-9.33-4.08-2.35-8.81-3.52-14.22-3.52h-15.74v1.29h8.93c2.38,0,4.6.28,6.68.85,2.1.56,4.04,1.42,5.83,2.57,3.56,2.26,6.53,5.28,8.93,9.04,2.39,3.76,4.16,8.01,5.34,12.74,1.17,4.74,1.77,9.61,1.77,14.63s-.59,9.88-1.77,14.62c-.49,1.96-1.08,3.84-1.79,5.64-.97,2.54-2.15,4.9-3.55,7.1-2.4,3.76-5.36,6.77-8.93,9.05-2.6,1.64-5.52,2.7-8.76,3.15-1.2.17-2.46.25-3.76.25H10.69v-80.92H0v82.21h36.77c5.4,0,10.14-1.17,14.21-3.52,4.07-2.35,7.46-5.47,10.17-9.34,2.7-3.88,4.74-8.26,6.11-13.15.57-2.07,1.03-4.16,1.35-6.29.47-2.88.7-5.83.7-8.8,0-5.17-.69-10.2-2.05-15.1Z"/>
        <path class="cls-2" d="m158.32,167.26c0,2.82-.65,5.55-1.94,8.22-1.3,2.66-3.25,5.05-5.87,7.16-2.62,2.11-5.96,3.81-9.99,5.11-4.03,1.29-8.82,1.94-14.38,1.94-.7,0-2.31-.06-4.81-.18-2.51-.11-5.29-.27-8.34-.47-3.05-.19-6.11-.35-9.16-.47-3.05-.11-5.52-.17-7.39-.17v-27.25c1.25,4.07,2.56,7.79,3.93,11.15,1.37,3.37,3.14,6.25,5.29,8.63,2.15,2.39,4.85,4.23,8.1,5.52,3.25,1.3,7.39,1.94,12.39,1.94,3.29,0,6.27-.47,8.93-1.41,2.66-.94,4.9-2.22,6.7-3.82,1.79-1.6,3.19-3.42,4.16-5.46.98-2.03,1.48-4.14,1.48-6.34,0-3.13-.73-5.83-2.18-8.1-1.45-2.27-3.38-4.25-5.81-5.94-2.43-1.68-5.17-3.15-8.22-4.4-3.05-1.26-6.19-2.49-9.4-3.7-3.21-1.21-6.34-2.47-9.4-3.76-3.05-1.3-5.8-2.78-8.22-4.46-2.43-1.68-4.37-3.68-5.82-5.99-.18-.29-.35-.58-.51-.88-1.11-2.11-1.66-4.59-1.66-7.39,0-2.5.49-4.97,1.47-7.39.32-.8,1.55-3.59,4.52-6.64,6.14-6.29,14.18-7.92,18.56-8.8,2.67-.54,6.53-1.09,11.27-.94-2.05.33-4.99.89-8.46,1.88-6.87,1.94-10.92,3.1-14.33,6.69-1.06,1.13-4.34,4.43-4.34,9.23,0,2.74.67,5.13,2.02,7.15.53.81,1.17,1.55,1.91,2.25,2.62,2.42,5.94,4.56,9.93,6.4,3.99,1.84,8.28,3.58,12.85,5.22,4.59,1.64,8.87,3.56,12.86,5.76,3.99,2.19,7.3,4.83,9.92,7.92,2.62,3.1,3.94,7.03,3.94,11.81Z"/>
        <path class="cls-2" d="m153.27,106.18v24.9c-1.17-3.76-2.27-7.11-3.29-10.04-1.02-2.94-2.31-5.44-3.88-7.52-.46-.61-.96-1.19-1.5-1.72,0,0-1.82-1.82-4.49-3.21-2.59-1.35-7.85-.86-14.68-.94,3-1.15,7.16-2.37,12.21-2.82,6.6-.58,12.05.4,15.62,1.35Z"/>
        <path class="cls-2" d="m170.18,147.05v-40.87h10.69v40.87h5.87c2.74,0,5.13-.61,7.16-1.82,2.04-1.21,3.82-2.76,5.34-4.64,1.53-1.88,2.78-3.93,3.76-6.17.98-2.23,1.74-4.36,2.29-6.4v39.11c-.55-2.04-1.31-4.17-2.29-6.4-.98-2.23-2.23-4.27-3.76-6.11-1.53-1.84-3.31-3.37-5.34-4.58-2.04-1.21-4.42-1.82-7.16-1.82h-5.87v38.87h21.85c2.74,0,5.13-.84,7.16-2.53,2.04-1.68,3.82-3.74,5.34-6.17,1.53-2.43,2.78-5.01,3.76-7.75.98-2.74,1.74-5.13,2.29-7.16v24.9h-51.09v-40.17c-2.08-.06-4.15-.12-6.23-.18,2.08-.33,4.15-.67,6.23-1Zm20.91-40.87h30.18v24.9c-.55-2.04-1.31-4.42-2.29-7.16-.98-2.74-2.23-5.32-3.76-7.75-1.53-2.43-3.31-4.48-5.34-6.17,0,0-1.25-.92-2.77-1.68-5.69-2.84-14.15-2.28-16.02-2.13Z"/>
        <path class="cls-2" d="m242.76,188.39h-10.92v-82.21h10.92v82.21Z"/>
        <path class="cls-2" d="m410.24,146.11c0,5.87-.92,11.39-2.76,16.56-1.84,5.17-4.56,9.69-8.16,13.57-3.6,3.88-8.03,6.93-13.27,9.16-5.25,2.23-11.27,3.35-18.09,3.35s-12.84-1.12-18.09-3.35c-5.25-2.23-9.67-5.29-13.27-9.16-3.6-3.88-6.32-8.4-8.16-13.57-1.84-5.17-2.76-10.69-2.76-16.56,0-5.56.82-10.78,2.47-15.68,1.21-3.59,2.84-6.9,4.89-9.93.09-.13,1.14-1.68,2.39-3.17,8.72-10.41,21.14-13.45,21.14-13.45,2.71-.66,6.93-1.37,12.21-.94-3.18.08-9.31.72-15.03,4.7-3.84,2.67-6.32,6.02-7.36,7.44-.43.59-1.91,2.55-3.27,5.48-1.84,3.95-3.11,8.18-3.82,12.68-.7,4.5-1.06,8.79-1.06,12.86,0,4.31.39,8.89,1.17,13.74.78,4.86,2.27,9.32,4.46,13.39,2.19,4.07,5.23,7.46,9.1,10.16,3.88,2.7,8.87,4.05,14.97,4.05s11.1-1.35,14.97-4.05c3.88-2.7,6.91-6.09,9.1-10.16,2.19-4.07,3.68-8.53,4.46-13.39.78-4.85,1.17-9.43,1.17-13.74,0-4.07-.35-8.36-1.06-12.86-.7-4.5-1.98-8.73-3.82-12.68-1.29-2.78-2.84-4.86-3.36-5.59-1.62-2.27-3.19-3.96-3.75-4.51-4.98-4.89-16.16-3.92-17.85-3.76,2.44-.58,6.02-1.17,10.34-.94,2.56.14,6.22.37,10.45,2.17,6.18,2.63,9.87,7.01,11.86,9.4,3.21,3.84,5.64,8.2,7.28,13.1,1.64,4.89,2.47,10.12,2.47,15.68Z"/>
        <path class="cls-2" d="m471.47,105.77v48.12c0,5.24-.5,9.7-1.5,13.32-1,3.63-2.37,6.62-4.12,8.98-1.92,2.59-4.17,4.08-6.02,5.38-2.7,1.9-5.19,3.12-7.02,3.88v.06c1.69-.2,3.89-.57,6.42-1.29,2.54-.72,4.33-1.5,4.72-1.66,3.55-1.5,6.68-3.57,9.39-6.2.45-.44.88-.89,1.3-1.36,2.11-2.35,3.84-5.09,5.19-8.26.74-1.72,1.31-3.56,1.72-5.51.48-2.33.72-4.82.72-7.47v-47.99h-10.79Z"/>
        <path class="cls-2" d="m253.2,145.75c.19-.18.53-.51.82-1.04.45-.83.5-1.65.49-2.12v-36.53h10.92v36.53c0,2.46,2,4.46,4.46,4.46h26.69c1.39,0,2.7.65,3.54,1.75l30.26,39.59h-13.51l-29.2-38.41c-.84-1.11-2.16-1.76-3.55-1.76h-14.24c-2.46,0-4.46,2-4.46,4.46v35.71h-10.92v-35.71c-.02-.56-.16-2.07-1.31-3.15-.91-.86-4.31-1.47-4.68-1.48.56-.16,3.23-.92,4.68-2.3Z"/>
        <path class="cls-2" d="m307.3,109.12h0c-.61-.92-1.36-1.29-2.19-1.7-.85-.43-1.7-.86-2.69-1.35h30.89c-3.57,1.29-8.54,3.42-13.92,6.99-4.78,3.17-8.16,6.33-11.8,10.04-5.24,5.34-12.72,13.54-21.26,25.02,14.41-20.13,18.25-26.74,19.5-29.18,0,0,3.48-6.79,1.47-9.81Z"/>
        <path class="cls-2" d="m485.29,164.05v25.34h-29.25c.14-.02.29-.04.43-.07-1.96.14-3.65.12-5.01.07-3.98-.18-13.04-.69-20.67-6.58-1.98-1.53-3.46-3.11-4.06-3.75-1.46-1.58-4.31-4.71-6.36-9.51-1.59-3.7-2.39-7.99-2.39-12.85v-50.52h10.78v50.52c-.04,3.21.19,7.79,1.5,13.09,1.29,5.18,2.02,8.17,4.28,11.14,6.21,8.14,18.51,9.12,25.09,7.83,3.48-.68,7.11-2.27,7.11-2.27,3.68-1.61,6.07-3.4,6.72-3.9.93-.71,1.81-1.48,2.65-2.29.84-.82,1.59-1.65,2.25-2.48,2.11-2.35,3.84-5.09,5.19-8.26.74-1.72,1.31-3.56,1.72-5.51Z"/>
        <path class="cls-2" d="m132.01,102.95c-2.05.33-4.99.89-8.46,1.88-6.87,1.94-10.92,3.1-14.33,6.69-1.06,1.13-4.34,4.43-4.34,9.23,0,2.74.67,5.13,2.02,7.15-.86.57-1.72,1.16-2.58,1.75-2.17,1.48-4.33,2.98-6.46,4.48-1.11-2.11-1.66-4.59-1.66-7.39,0-2.5.49-4.97,1.47-7.39.32-.8,1.55-3.59,4.52-6.64,6.14-6.29,14.18-7.92,18.56-8.8,2.67-.54,6.53-1.09,11.27-.94Z"/>
        <path class="cls-2" d="m97.98,102.95c-3.28,1.18-7.85,3.14-12.79,6.42-4.39,2.91-7.5,5.81-10.85,9.22-1.56,1.6-3.34,3.46-5.3,5.63-.29-.66-.59-1.29-.9-1.9,2.8-4.27,4-6.41,4.58-7.55,0,0,3.19-6.23,1.35-9.01-.56-.85-1.25-1.18-2.01-1.56-.79-.4-1.56-.79-2.47-1.24h28.39Z"/>
      </g>
    </g>
  </g>
</svg>